<?xml version="1.0" encoding="utf-8"?>
<!-- Generator: Adobe Illustrator 29.8.7, SVG Export Plug-In . SVG Version: 9.03 Build 0)  -->
<svg version="1.1" id="Layer_1" xmlns="http://www.w3.org/2000/svg" xmlns:xlink="http://www.w3.org/1999/xlink" x="0px" y="0px"
	 viewBox="0 0 587 720" style="enable-background:new 0 0 587 720;" xml:space="preserve">
<style type="text/css">
	.st0{fill:#D06540;}
	.st1{fill:#FBF9F7;}
	.st2{fill:#FBF9F6;}
	.st3{fill:#0E161D;}
	.st4{fill:#10181F;}
	.st5{fill:#D16A45;}
	.st6{fill:#D16944;}
	.st7{fill:#D16641;}
	.st8{fill:#D17859;}
	.st9{fill:#D26B47;}
	.st10{fill:#F5EFEB;}
	.st11{fill:#D47D5E;}
</style>
<path class="st0" d="M118,25c9.8,4.7,19.1,9.6,28,16c0.5,0.3,0.5,0.3,2.9,2c11.6,8.5,22.3,18.1,32.8,28c2.3,2.2,4.6,4.2,7.2,6.2
	c0.7,0.6,1.4,1.2,2.1,1.8c0,0.7,0,1.3,0,2c0.6,0.3,1.1,0.5,1.7,0.8c3.1,1.6,5.1,3.8,7.5,6.3c0.5,0.5,1,1,1.5,1.6
	c1.1,1.1,2.2,2.3,3.3,3.4c2.3,2.4,4.7,4.8,7,7.2c4.4,4.5,8.8,8.9,13.1,13.5c3,3.1,6.1,6.3,9.1,9.4c1.2,1.2,2.3,2.4,3.4,3.6
	c7.3,7.7,13.3,12,24.3,13.3c1.8,0.3,3.6,0.6,5.4,0.9c0.9,0.1,1.7,0.3,2.6,0.4c28.1,4.4,55.2,12.9,81.1,24.7
	c-13-13.2-28.3-23.2-45-31c4.8-8.2,10.4-15.3,16.6-22.4c2.1-2.4,4-4.9,6-7.3c3.6-4.4,7.4-8.3,11.4-12.3c1.6-1.6,3.1-3.3,4.6-5.1
	c2.5-2.9,5.1-5.3,8-7.8c2.3-2,4.5-4.1,6.7-6.3c10.8-10.3,23-18.3,35.6-26.1c0.8-0.5,1.6-1,2.4-1.4c0.7-0.4,1.4-0.9,2.2-1.3
	c0.3-0.2,0.3-0.2,1.9-1.2C403,43,403,43,405,43c2.4,10.2,3.5,19.6,3.4,30.1c0,0.3,0,0.3,0,2.1c-0.2,30.8-2.6,66.7-17.5,94.3
	c-1.2,3.8-1,5.7,0.2,9.5c2.5,3.1,5.4,5.7,8.4,8.3c0.8,0.7,1.6,1.4,2.4,2.2c3,2.7,5.9,5.3,9.3,7.5c0,0.7,0,1.3,0,2c0.7,0,1.3,0,2,0
	c2.5,2.5,4.7,5.3,7,8c0.8,0.9,1.6,1.8,2.4,2.7c14.4,16.6,23.4,35.3,26.3,57.2c2.9,21.2,10.5,35.8,25.3,51.1c0.2,0.3,0.2,0.3,1.5,1.6
	c5.9,6.1,11.9,11.8,18.5,17.1c2.2,1.8,4.4,3.6,6.6,5.4c9.3,7.8,19,14.8,29.1,21.5c2.2,1.5,4.4,3,6.7,4.5c1.3,0.9,2.7,1.8,4,2.7
	c0.3,0.2,0.3,0.2,1.8,1.2c3.2,2.1,6.2,3.8,9.8,5.1c0,0.7,0,1.3,0,2c0.7,0.2,1.4,0.5,2.2,0.8c5.8,2.6,5.8,2.6,7.8,5.2
	c-0.7,20.9-19.4,40.5-33.3,54.3c-23,21.2-50,27.7-80.7,26.7c-4.4-0.3-8.9-0.7-13.3-1.1c-2.1-0.2-4.3-0.4-6.4-0.6
	c-7.2-0.7-14.5-1.4-21.7-2.2c-43.4-4.5-43.4-4.5-59.2,2.4c-8.8,8.8-10.4,21.9-10.7,33.8c0.3,22.8,8.6,44.5,15.5,65.9
	c2.4,7.5,4.4,14.9,5.7,22.7c0.1,0.5,0.1,0.5,0.5,3c4.2,30.5-2.8,61.4-21.2,86.2c-2.1,2.7-4.2,5.3-6.3,7.8c-0.8,1-1.6,2-2.5,3
	c-4.4,5.2-4.4,5.2-6.5,7c-4,0-4,0-5.7-1.2c-0.5-0.6-1.1-1.2-1.6-1.8c-0.3-0.3-0.3-0.3-1.9-2c-2.3-2.5-4.5-5.1-6.8-7.7
	c-2.6-2.9-5.2-5.8-7.8-8.6c-0.5-0.6-1-1.1-1.6-1.7c-1-1.1-2.1-2.3-3.1-3.4c-2.4-2.6-4.7-5.1-7.1-7.7c-0.4-0.5-0.9-1-1.4-1.5
	c-0.9-1-1.8-2-2.7-3c-2.3-2.5-4.6-5-6.9-7.5c-2.7-3-5.5-6-8.2-9c-4.7-5.2-9.5-10.3-14.2-15.5c-0.5-0.5-1-1.1-1.5-1.6
	c-2.6-2.9-5.3-5.7-7.9-8.5c-0.5-0.6-1.1-1.2-1.7-1.8c-1-1.1-2.1-2.2-3.2-3.3c-2.5-2.6-4.3-5.1-5.8-8.3c-0.7,0-1.3,0-2,0
	c-1.3-1.3-1.3-1.3-2.9-3.2c-3.2-3.7-6.5-7.4-9.8-11c-0.5-0.6-1-1.1-1.6-1.7c-1.1-1.1-2.1-2.3-3.2-3.4c-2.5-2.7-5.1-5.5-7.6-8.2
	c-1-1.1-2-2.2-3-3.2c-6-6.5-6-6.5-7.5-8.1c-1-1.1-2-2.2-3-3.3c-2.5-2.7-4.9-5.3-7.4-8c-1-1.1-1.9-2.1-2.9-3.2c-0.5-0.5-1-1-1.5-1.6
	c-2.9-3.1-5.8-6.2-8.8-9.3c-0.7-0.7-1.4-1.4-2.1-2.2c-1.3-1.4-2.7-2.8-4-4.2c-0.6-0.6-1.2-1.3-1.8-1.9c-0.5-0.6-1.1-1.1-1.6-1.7
	c-1.5-1.8-2.4-3.6-3.4-5.7c0.5-0.5,1-1,1.5-1.6c5.4-6,8-10,7.8-18.2c-0.7-6.2-3.6-10.4-8.2-14.3c-5.9-3.2-12.7-3.7-19-1.9
	c-4.8,2.1-8.1,5.5-10.8,9.9c-2.4,6.4-2.6,11.6-0.1,18c2.4,3.8,5.1,6.4,8.8,8.9c6,4,10.8,9.5,15.5,14.9c3.5,4,7.2,8,10.9,11.9
	c1.3,1.4,2.7,2.8,4,4.2c0.3,0.3,0.3,0.3,2,2.1c2.7,2.8,5.3,5.7,7.9,8.6c4.3,4.7,8.7,9.3,13,14c5.1,5.5,10.2,11,15.2,16.5
	c4.3,4.7,8.7,9.5,13.1,14.2c1.1,1.2,2.2,2.3,3.2,3.5c8.2,9,16.7,17.7,25.3,26.3c0.2,0.2,0.2,0.2,1.5,1.5
	c5.7,5.7,11.4,11.2,17.6,16.4c2.7,2.3,5.3,4.7,8,7c-3.8,0-6.8-1.4-10.3-2.8c-9.3-3.5-18.7-6.5-28.2-9.5c-40.9-12.7-80-29-114.5-54.8
	c-0.6-0.4-1.1-0.8-1.7-1.2c-7.1-5.3-13.7-10.8-20.2-16.8C99,575,99,575,97,574c-0.3-1.8-0.3-1.8-0.3-4.2c0-0.9,0-1.8,0-2.8
	c0-1,0-2,0-3.1c0-0.5,0-0.5,0-3.2c0-3.5-0.1-7.1-0.1-10.6c0-1.2,0-2.4,0-3.6c0-6.4-0.1-12.8-0.1-19.1c0-6.6-0.1-13.2-0.2-19.8
	c-0.1-5.1-0.1-10.1-0.1-15.2c0-2.4,0-4.9-0.1-7.3c0-3.4,0-6.8,0-10.2c0-1-0.1-2-0.1-3c0.1-4.1,0.1-6.8,2.8-10c2-1.8,4.1-3.3,6.3-4.9
	c1.7-1.7,3.5-3.4,5.2-5.2c3.1-3.2,6.3-6.1,9.8-8.8c1.7-1.6,3.4-3.3,5-5c1.7-1.7,3.3-3.3,5-5c1.6-1.6,3.2-3.2,4.8-4.9
	c2.5-2.5,5.1-5.1,7.6-7.6c1.3-1.3,2.7-2.7,4-4c1.9-1.9,3.9-3.9,5.8-5.8c0.6-0.6,1.2-1.2,1.8-1.8c3.5-3.5,7.1-6.7,11-9.9
	c2.4-2.3,4.7-4.6,6.8-7.2c2.2-1.8,2.2-1.8,5.2-1.7c1.1,0.3,2.2,0.5,3.3,0.8c7.4,1.4,12.4,1,19-2.6c6.8-5.6,10.9-11.1,11.8-20.1
	c0.1-6.8-1.9-12.1-6.2-17.4c-5.1-5.1-10.4-7.6-17.5-8c-7.8,0.1-14.8,3.7-20.2,9.2c-3.1,4.9-4.9,10.2-5,16c0.7,1.8,1.3,3.6,2,5.4
	c0.9,2.9,0.9,2.9,1,5.6c-2.3,3.8-5.5,6.2-9,9c-7.5,6.2-14.4,13.2-21.3,20.1c-0.6,0.6-1.3,1.2-1.9,1.9c-3.3,3.3-6.6,6.6-9.9,9.9
	c-3.4,3.4-6.8,6.8-10.2,10.2c-2.6,2.6-5.3,5.3-7.9,7.9c-1.3,1.3-2.5,2.5-3.8,3.8c-1.8,1.7-3.5,3.5-5.3,5.3c-0.5,0.5-1,1-1.6,1.5
	c-5.8,5.9-8.5,10.5-8.6,18.7c0,0.5,0,0.5,0,2.8c0,1,0,2,0,3c0,3.2,0,6.4,0.1,9.6c0,2.2,0,4.5,0,6.7c0,5.9,0.1,11.7,0.1,17.6
	c0,6,0.1,12,0.1,18c0,11.7,0.1,23.5,0.2,35.2c-22.8-10.5-39.8-53.3-48-75c-1.5-4.3-3-8.6-4.4-13c-0.3-1-0.6-1.9-0.9-2.9
	c-0.8-2.6-1.5-5.3-2.1-7.9c-0.4-1.5-0.8-3.1-1.3-4.6c-4.8-16.2-4.8-16.2-2.4-23c3.3-5.7,8.2-10,13-14.4c1.5-1.5,3-2.9,4.4-4.4
	c3.1-3.1,6.2-6.1,9.4-9c4-3.8,8-7.7,11.9-11.6c3-3,6.1-6,9.2-9c1.5-1.4,2.9-2.9,4.4-4.3c12.8-12.5,12.8-12.5,20.5-13
	c0.5,0,0.5,0,2.7,0.2c5.5,0.1,10.3-3,14.4-6.5c5.2-5.5,7.2-12,7.6-19.4c-0.3-7.8-3.8-13.7-8.7-19.5c-5.9-5-11.6-5-19.1-4.8
	c-6,0.5-10.3,1.9-14.5,6.2c-6.4,8-7,16.1-6.2,26.2c0.9,3.9,2.1,7.1,5,10c-0.3,3.5-1.9,5.2-4.3,7.7c-0.3,0.3-0.3,0.3-2,2
	c-0.7,0.7-1.4,1.4-2.1,2.1c-0.3,0.3-0.3,0.3-2.1,2.1c-5.2,5.1-5.2,5.1-7.5,5.1c-0.3,0.6-0.6,1.2-0.9,1.9c-1.4,2.6-2.6,2.8-5.1,4.1
	c-0.3,0.6-0.5,1.2-0.8,1.8c-1.6,3-3.7,4.7-6.3,6.9c-4.8,4.2-4.8,4.2-5.9,6.4c-0.7,0-1.3,0-2,0c0,0.7,0,1.3,0,2c-1.4,1.6-1.4,1.6-3,3
	c-0.7,0-1.3,0-2,0c-0.7,1.3-1.3,2.7-2,4c-1.3,1.4-2.6,2.8-4,4.1c-0.7,0.7-1.4,1.4-2.1,2.1c-0.6,0.6-1.2,1.2-1.9,1.8
	c-0.7,0.7-1.3,1.3-2,2c-2.3-64.6,25.7-130.2,66.8-179.4c0.5-0.6,0.9-1.2,1.4-1.7c0.9-1.1,1.8-2.2,2.8-3.3c2.2-2.7,3-4.3,3-7.8
	c-1.3-4.9-2.7-9.6-4.3-14.4c-3.4-11-5.9-22-7.7-33.4c-0.1-0.4-0.1-0.4-0.4-2.3C79.6,129.8,89.5,82.3,110,40c0.4-0.7,0.7-1.5,1.1-2.2
	C116.6,26.4,116.6,26.4,118,25z"/>
<path class="st1" d="M301.2,383.6c0.8,0,1.6,0,2.4,0c14.4,0,28.3,1.4,42.4,4.4c0.9,0.2,1.7,0.4,2.6,0.6c5.9,1.3,11.6,2.8,17.4,4.4
	c0.4,0.1,0.4,0.1,2.5,0.7c14.3,4.2,27.9,9.9,41.5,15.8c31.1,13.4,59.9,20,93.9,20.4c-1.9,4.3-4.4,5.7-8.5,7.6
	c-0.6,0.3-1.3,0.6-1.9,0.9c-5.2,2.4-10,3.8-15.6,4.4c-0.8,0.1-1.5,0.2-2.3,0.3c-12.7,1.6-25.3,0.6-37.9-1c-1.4-0.2-2.8-0.4-4.2-0.5
	c-12.3-1.6-24.6-3.3-36.9-5.1c-33.4-4.9-68.1-6.1-96.6,14.3c-14.4,10.7-23.3,27.4-26,45c-2.4,27.3,7.6,50,23,72c-3,1-3,1-5.5-0.1
	c-7.4-4.4-14-9.2-20.5-14.9c-0.6-0.5-1.2-1.1-1.9-1.6c-9.6-8.9-16.2-20.4-21.1-32.4c-0.3-0.7-0.6-1.4-1-2.1
	c-7.8-18.5-4.4-40.3,1-58.9c-3.4,2.6-6.7,5.3-10,8c-0.8,0.6-1.5,1.2-2.3,1.8c-13.7,11.3-21.4,27-27.7,43.2c-0.7,0-1.3,0-2,0
	c-9.6-22.5-11-45.5-2.8-68.6c9.1-22.3,26.1-41.3,48.3-51C267.6,385.1,284.2,383.6,301.2,383.6z"/>
<path class="st1" d="M204,244.7c5.8,3.9,9.5,9.5,11,16.3c1.1,8.2-0.7,15.4-5.5,22.1c-4.1,4.5-8.4,7-14.5,7.9
	c-2.2-0.1-4.5-0.3-6.7-0.5c-8.7-0.2-13.4,4.3-19.5,9.9c-3.1,2.8-6.3,5.3-9.5,7.9c-0.7,0.5-1.3,1.1-2,1.6
	c-5.4,4.4-10.9,8.6-16.5,12.8c-0.8,0.6-1.6,1.2-2.4,1.8c-0.4,0.3-0.4,0.3-2.3,1.7c-0.7,0.5-1.3,1-2,1.5c-2.4,1.4-4.3,2-7.1,2.2
	c-2.6-2.4-3.9-3.9-4.3-7.4c0.4-3.3,1.4-4.2,3.8-6.4c0.4-0.3,0.4-0.3,2.2-2.1c0.7-0.7,1.5-1.3,2.3-2c0.3-0.3,0.3-0.3,1.9-1.7
	c2-1.8,4.1-3.6,6.1-5.3c1-0.8,1.9-1.6,2.9-2.5c2.2-1.9,4.4-3.7,6.6-5.6c2.4-2,4.7-4,7-6c0.6-0.5,1.2-1,1.8-1.5
	c1.1-0.9,2.2-1.9,3.3-2.8c2.7-2.3,5.4-4.5,8.3-6.6c-0.3-0.8-0.6-1.5-0.9-2.3c-2.5-6.4-3.4-12.8-1.1-19.5c3.3-6.8,7.3-11.7,14.1-15.2
	C188.5,240.7,197,241.1,204,244.7z"/>
<path class="st2" d="M127,71c3.1,1.4,5.2,3,7.6,5.4c0.7,0.7,1.4,1.4,2.1,2.1c0.7,0.7,1.4,1.4,2.1,2.2c0.7,0.7,1.4,1.4,2.1,2.1
	c4.6,4.6,8.9,9.4,13.1,14.3c0.8,0.9,1.6,1.8,2.4,2.8c16.6,19.5,38.2,45.1,44.6,70.2c-11.5-9.6-22.3-20.1-32.9-30.7
	c-1.9-1.9-3.8-3.7-5.7-5.6c-6.9-6.8-13-13.6-18.4-21.7c-1,22.3,2.9,44,8.2,65.6c0.3,1.1,0.5,2.1,0.8,3.2c0.2,0.9,0.5,1.9,0.7,2.8
	c0.4,2.4,0.4,2.4-0.6,5.4C136.8,151.6,126.4,111.9,127,71z"/>
<path class="st3" d="M291,266c6.8-0.1,13.7-0.2,20.5-0.2c2.3,0,4.6,0,6.9-0.1c24.8-0.4,44.6,2.9,63.6,20.3c0.7,0.7,1.5,1.3,2.2,2
	c9.6,9.1,15.2,20.2,20.8,32c-3.8-1.8-6-4-9-7c-1.2-1-2.5-2.1-3.8-3.1c-0.6-0.5-1.2-0.9-1.8-1.4c-8-5-16.2-6.7-25.3-8.3
	c-11.9-2.3-23-5.3-34.1-10.2c-0.8-0.4-1.7-0.7-2.5-1.1C295.2,274.4,295.2,274.4,291,266z"/>
<path class="st4" d="M562,385c-4,21.9-17.6,38.6-33,54c-2-0.1-2-0.1-4-1c-2.6-3.4-2.5-6.9-2-11c0.8-1.6,1.7-3.1,2.6-4.6
	c1.7-2.8,2.4-4.2,2.7-7.5c-1.9-4.4-5-7.5-8.2-10.9c-4.9-5.5-7-9.6-7-17c1.5-0.7,3-1.3,4.5-1.9c0.8-0.4,1.7-0.7,2.5-1.1
	C533.1,379.7,549,381.2,562,385z"/>
<path class="st5" d="M104,331c3,1.7,5.4,3.8,7,7c0.4,4.2,0.4,7.9-1.2,11.9c-3.1,3.7-5.5,5-10.3,5.5c-3.7-0.4-5.6-1.1-8.5-3.4
	c-3.1-4.7-2.7-9.5-2-15C93.1,331.6,97.3,329.9,104,331z"/>
<path class="st6" d="M193,358c2.6,2,3.7,3.3,4.9,6.4c0.2,4.7-1.2,7.7-3.9,11.5c-3.5,2.5-5.5,2.8-9.8,2.6c-3.2-0.6-5-2.1-7.2-4.4
	c-1.7-3.5-1.5-7.2-1-11c1.9-3.4,3.3-4.7,6.8-6.4C186.9,355.8,189.2,356.5,193,358z"/>
<path class="st7" d="M194,256c3.5,1.7,4.8,2.7,7,6c0.5,5,0.2,8.1-3,12c-3.4,2.6-6.8,2.4-11,2c-2.8-1.8-4.5-3.1-6-6
	c-0.7-7.1-0.7-7.1,2.4-10.9C187.2,256.1,189.2,255.6,194,256z"/>
<path class="st8" d="M105,461c-1.8,3.9-1.8,3.9-4,5c-0.3,1.8-0.3,1.8-0.3,4.2c0,0.9,0,1.8,0,2.7c0,1,0,2,0,3c0,1,0,2.1,0,3.2
	c0,3.5,0,6.9-0.1,10.4c0,2.4,0,4.8-0.1,7.2c-0.1,6.3-0.1,12.6-0.1,19c0,6.4-0.1,12.9-0.1,19.3c-0.1,12.7-0.2,25.3-0.3,38
	c-0.5,0.2-0.5,0.2-3,1c-0.1-14.3-0.2-28.5-0.3-42.8c0-6.6-0.1-13.3-0.1-19.9c-0.1-6.4-0.1-12.8-0.1-19.2c0-2.4,0-4.9-0.1-7.3
	c0-3.4,0-6.8,0-10.2c0-1,0-2-0.1-3.1c0.1-6.8,0.1-6.8,3-10.2C102,460,102,460,105,461z"/>
<path class="st9" d="M153,496c1.9,1.1,1.9,1.1,3,3c0.6,3.4,0.6,3.4,0,7c-2.6,3-2.6,3-6,5c-4,0.2-5.4-0.5-8.4-3.2
	c-1.6-2.8-1.6-2.8-1.6-5.9C142.4,495.2,146.4,494.2,153,496z"/>
<path class="st10" d="M486,430c5.9,0,11.9,0,18,0c-2.1,4.2-2.9,5.2-7,7c-2.8-0.3-2.8-0.3-5-1c1-1,2-2,3-3c-3.3,0-6.6,0-10,0
	C485.3,432,485.7,431,486,430z"/>
<path class="st11" d="M262,650c4.7,4,9.3,8,14,12c-3,0-4.6-0.4-7.3-1.5c-0.8-0.3-1.7-0.6-2.5-0.9c-0.9-0.3-1.7-0.6-2.6-1
	c-0.9-0.3-1.7-0.6-2.6-1c-3.6-1.3-6.7-2.5-9.9-4.7c4.8-0.2,8.5,0.2,13,2c-0.7-0.7-1.3-1.3-2-2C262,652,262,651,262,650z"/>
<path class="st11" d="M0,0"/>
</svg>
